<?xml version="1.0" standalone="no"?><!DOCTYPE svg PUBLIC "-//W3C//DTD SVG 1.1//EN" "http://www.w3.org/Graphics/SVG/1.1/DTD/svg11.dtd"><svg t="1656072903282" class="icon" viewBox="0 0 1024 1024" version="1.1" xmlns="http://www.w3.org/2000/svg" p-id="3004" xmlns:xlink="http://www.w3.org/1999/xlink" width="200" height="200"><defs><style type="text/css"></style></defs><path d="M514.285714 974.971429c-1.485714 0.228571-2.971429 0.228571-4.457143 0l2.285715-5.142858 2.171428 5.142858z" fill="#FFAB40" p-id="3005"></path><path d="M512 1024c-25.485714 0-49.028571-14.857143-61.485714-38.742857L240.114286 583.2c-8.114286-5.028571-14.971429-12.114286-19.657143-20.8-36.457143-11.771429-62.857143-46.057143-62.857143-86.285714 0-16.114286 4.114286-31.428571 11.885714-44.914286-6.057143-25.942857-9.028571-52.571429-9.028571-79.542857 0-93.942857 36.571429-182.285714 102.971428-248.685714C329.714286 36.571429 418.057143 0 512 0c93.942857 0 182.285714 36.571429 248.685714 102.971429 66.4 66.4 102.971429 154.742857 102.971429 248.685714 0 26.857143-3.085714 53.485714-9.028572 79.542857 7.657143 13.485714 11.885714 28.8 11.885715 44.914286 0 40.342857-26.4 74.514286-62.857143 86.285714-4.685714 8.685714-11.542857 15.771429-19.657143 20.8L573.485714 985.257143C561.028571 1009.142857 537.485714 1024 512 1024z" fill="#25467A" p-id="3006"></path><path d="M512 351.657143m-303.657143 0a303.657143 303.657143 0 1 0 607.314286 0 303.657143 303.657143 0 1 0-607.314286 0Z" fill="#FFF3E0" p-id="3007"></path><path d="M512 493.714286H247.428571l245.6 469.257143c9.028571 17.257143 28.914286 17.257143 37.942858 0L776.571429 493.714286H512z" fill="#FFAB40" p-id="3008"></path><path d="M748 493.714286h-22.971429l-6.742857 13.6-6.742857-13.6h-22.971428l18.171428 36.8-22.971428 46.514285-22.971429-46.514285 18.171429-36.8H656l-6.742857 13.6-6.742857-13.6h-22.971429l18.171429 36.8-22.514286 45.6-22.971429-46.514286 17.714286-35.885714h-22.971428l-6.285715 12.685714-6.285714-12.685714h-22.971429l17.714286 35.885714-22.971428 46.514286-22.742858-46.514286 17.714286-35.885714h-22.971428l-6.285715 12.685714-6.285714-12.685714h-22.971429l17.714286 35.885714-22.971428 46.514286-22.971429-46.514286 17.714286-35.885714H449.142857l-6.285714 12.685714L436.571429 493.714286h-22.971429l17.714286 35.885714-22.971429 46.514286-22.514286-45.6 18.171429-36.8h-22.971429l-6.742857 13.6-6.742857-13.6h-22.971428l18.171428 36.8-22.971428 46.514285-22.971429-46.514285 18.171429-36.8H312l-6.742857 13.6-6.742857-13.6h-22.971429l18.171429 36.8-13.371429 27.085714 11.771429 22.514286 13.028571-26.4 22.971429 46.514285-12.342857 25.028572 11.771428 22.514286 12-24.342858 22.514286 45.6-11.428572 23.085715 11.771429 22.514285 11.085714-22.4 22.971429 46.514286-10.4 21.142857 11.771428 22.514286 10.057143-20.457143 22.971429 46.514286-9.485714 19.085714 11.771428 22.514286 9.142857-18.4 22.971429 46.514286-8.457143 17.142857 11.771429 22.514285 8.114285-16.457142 22.971429 46.514285-7.428572 15.085715c4 7.657143 10.171429 11.885714 16.685715 12.685714l2.285714-4.685714 2.285714 4.685714c6.4-0.8 12.571429-5.028571 16.685715-12.685714l-7.428572-15.085715 22.971429-46.514285 8.114285 16.457142 11.771429-22.514285-8.457143-17.142857 22.971429-46.514286 9.142857 18.4 11.771428-22.514286-9.485714-19.085714 22.971429-46.514286 10.057143 20.457143 11.771428-22.514286-10.4-21.142857 22.971429-46.514286 11.085714 22.4 11.771429-22.514285-11.428572-23.085715 22.514286-45.6 12 24.342858 11.771428-22.514286-12.342857-25.028572 22.971429-46.514285 13.028571 26.4 11.771429-22.514286-13.371429-27.085714 19.314286-36.8z m-167.085714 59.085714l22.971428 46.514286-22.971428 46.514285-22.971429-46.514285 22.971429-46.514286z m-11.428572 116.342857l-22.971428 46.514286-23.085715-46.514286 22.971429-46.514286 23.085714 46.514286z m-34.514285 69.714286L512 785.371429l-22.971429-46.514286 22.971429-46.514286 22.971429 46.514286zM512 552.8l22.971429 46.514286-22.971429 46.628571-22.971429-46.514286 22.971429-46.628571z m-11.428571 116.342857l-22.971429 46.514286-22.971429-46.514286 22.971429-46.514286 22.971429 46.514286z m-57.485715-116.342857l22.971429 46.514286-22.971429 46.514285-22.971428-46.514285 22.971428-46.514286z m-91.428571 47.428571l22.971428-46.514285 22.514286 45.6-22.971428 46.514285-22.514286-45.6z m33.942857 68.914286l22.971429-46.514286 22.971428 46.514286-22.971428 46.514286-22.971429-46.514286z m34.514286 69.714286l22.971428-46.514286 22.971429 46.514286-22.971429 46.514286-22.971428-46.514286z m34.4 69.714286l22.971428-46.514286 22.971429 46.514286-22.971429 46.514285-22.971428-46.514285zM512 924.8l-22.971429-46.514286 22.971429-46.514285 22.971429 46.514285-22.971429 46.514286z m34.514286-69.714286L523.428571 808.571429l22.971429-46.514286 22.971429 46.514286-22.857143 46.514285z m34.4-69.714285l-22.971429-46.514286 22.971429-46.514286 22.971428 46.514286-22.971428 46.514286z m34.514285-69.714286l-22.971428-46.514286 22.971428-46.514286 22.971429 46.514286-22.971429 46.514286z m34.4-69.714286l-22.971428-46.514286 22.514286-45.6 22.971428 46.514286-22.514286 45.6z" fill="#FFBA62" p-id="3009"></path><path d="M786.171429 493.714286l-13.485715 24.914285-11.314285 20.8c-1.371429 2.514286-4.228571 4.114286-7.314286 4.114286H269.942857c-3.085714 0-5.942857-1.6-7.314286-4.114286l-11.314285-20.8-13.485715-24.914285h548.342858z" fill="#FFD180" p-id="3010"></path><path d="M775.771429 433.371429c-16.342857 0-30.514286 9.142857-37.714286 22.628571-7.2-13.485714-21.371429-22.628571-37.714286-22.628571s-30.514286 9.142857-37.714286 22.628571c-7.2-13.485714-21.371429-22.628571-37.714285-22.628571s-30.514286 9.142857-37.714286 22.628571c-7.2-13.485714-21.371429-22.628571-37.714286-22.628571s-30.514286 9.142857-37.714285 22.628571c-7.2-13.485714-21.371429-22.628571-37.714286-22.628571s-30.514286 9.142857-37.714286 22.628571c-7.2-13.485714-21.371429-22.628571-37.714286-22.628571s-30.514286 9.142857-37.714285 22.628571c-7.2-13.485714-21.371429-22.628571-37.714286-22.628571s-30.514286 9.142857-37.714286 22.628571c-7.2-13.485714-21.371429-22.628571-37.714285-22.628571-23.542857 0-42.628571 19.085714-42.628572 42.628571 0 23.542857 19.085714 42.628571 42.628572 42.628571 16.342857 0 30.514286-9.142857 37.714285-22.628571 7.2 13.485714 21.371429 22.628571 37.714286 22.628571s30.514286-9.142857 37.714286-22.628571c7.2 13.485714 21.371429 22.628571 37.714285 22.628571s30.514286-9.142857 37.714286-22.628571c7.2 13.485714 21.371429 22.628571 37.714286 22.628571s30.514286-9.142857 37.714286-22.628571c7.2 13.485714 21.371429 22.628571 37.714285 22.628571s30.514286-9.142857 37.714286-22.628571c7.2 13.485714 21.371429 22.628571 37.714286 22.628571s30.514286-9.142857 37.714285-22.628571c7.2 13.485714 21.371429 22.628571 37.714286 22.628571s30.514286-9.142857 37.714286-22.628571c7.2 13.485714 21.371429 22.628571 37.714286 22.628571 23.542857 0 42.628571-19.085714 42.628571-42.628571 0-23.542857-19.085714-42.628571-42.628571-42.628571z" fill="#FFF3E0" p-id="3011"></path><path d="M512 424.571429c-35.314286 0-64-28.685714-64-64 0-7.085714 5.714286-12.8 12.8-12.8s12.8 5.714286 12.8 12.8c0 21.257143 17.142857 38.4 38.4 38.4s38.4-17.142857 38.4-38.4c0-7.085714 5.714286-12.8 12.8-12.8s12.8 5.714286 12.8 12.8c0 35.314286-28.685714 64-64 64zM345.6 258.171429c0 21.257143 17.142857 38.4 38.4 38.4s38.4-17.142857 38.4-38.4-17.142857-38.4-38.4-38.4c-21.142857 0-38.4 17.142857-38.4 38.4zM601.6 258.171429c0 21.257143 17.142857 38.4 38.4 38.4s38.4-17.142857 38.4-38.4-17.142857-38.4-38.4-38.4c-21.142857 0-38.4 17.142857-38.4 38.4z" fill="#25467A" p-id="3012"></path><path d="M332.8 322.171429h-51.2c-14.171429 0-25.6 11.428571-25.6 25.6s11.428571 25.6 25.6 25.6h51.2c14.171429 0 25.6-11.428571 25.6-25.6s-11.428571-25.6-25.6-25.6z m409.6 0h-51.2c-14.171429 0-25.6 11.428571-25.6 25.6s11.428571 25.6 25.6 25.6h51.2c14.171429 0 25.6-11.428571 25.6-25.6s-11.428571-25.6-25.6-25.6z" fill="#F48FB1" p-id="3013"></path><path d="M781.371429 447.657143c0 3.542857-120.571429 14.285714-269.371429 14.285714s-269.371429-10.742857-269.371429-14.285714c0-3.542857 120.571429 1.485714 269.371429 1.485714s269.371429-5.028571 269.371429-1.485714z" fill="#FFE0B2" p-id="3014"></path></svg>