<?xml version="1.0" standalone="no"?><!DOCTYPE svg PUBLIC "-//W3C//DTD SVG 1.1//EN" "http://www.w3.org/Graphics/SVG/1.1/DTD/svg11.dtd"><svg t="1656051432741" class="icon" viewBox="0 0 1024 1024" version="1.1" xmlns="http://www.w3.org/2000/svg" p-id="1668" xmlns:xlink="http://www.w3.org/1999/xlink" width="200" height="200"><defs><style type="text/css"></style></defs><path d="M511.99984 639.9998a127.99996 127.99996 0 0 1-127.99996-127.99996c0-62.079981 86.719973-161.919949 104.319967-181.439943a31.99999 31.99999 0 0 1 47.359986 0c17.599995 19.519994 104.319967 119.359963 104.319967 181.439943a127.99996 127.99996 0 0 1-127.99996 127.99996z m0-238.399925c-33.919989 42.239987-63.99998 89.919972-63.99998 110.399965a63.99998 63.99998 0 0 0 127.99996 0c0-19.839994-30.079991-67.839979-63.99998-110.399965z" fill="#2c2c2c" p-id="1669"></path><path d="M959.9997 735.99977h-63.99998a319.9999 319.9999 0 0 0-159.99995-574.39982V63.99998a31.99999 31.99999 0 0 0 0-63.99998h-255.99992a31.99999 31.99999 0 0 0 0 63.99998v95.99997c-76.159976 0-204.159936-4.159999-236.479926 9.599997A319.9999 319.9999 0 0 0 127.99996 735.99977H63.99998a63.99998 63.99998 0 0 0-63.99998 63.99998v95.99997a63.99998 63.99998 0 0 0 63.99998 63.99998h37.759988A95.99997 95.99997 0 0 0 255.99992 999.039688a95.99997 95.99997 0 1 0 0-142.079956A95.99997 95.99997 0 0 0 101.759968 895.99972H63.99998v-95.99997h895.99972v95.99997h-37.759988a95.99997 95.99997 0 0 0-180.479944 0H511.99984a31.99999 31.99999 0 0 0 0 63.99998h229.759928a95.99997 95.99997 0 0 0 180.479944 0H959.9997a63.99998 63.99998 0 0 0 63.99998-63.99998v-95.99997a63.99998 63.99998 0 0 0-63.99998-63.99998z m-639.9998 159.99995a31.99999 31.99999 0 1 1-31.99999 31.99999 31.99999 31.99999 0 0 1 31.99999-31.99999z m-127.99996 0a31.99999 31.99999 0 1 1-31.99999 31.99999 31.99999 31.99999 0 0 1 31.99999-31.99999z m607.99981-178.879944V242.879924a255.99992 255.99992 0 0 1 0 474.239852zM543.99983 63.99998h127.99996v95.99997h-127.99996zM223.99993 242.879924v474.239852A255.99992 255.99992 0 0 1 223.99993 242.879924zM319.9999 735.99977a264.319917 264.319917 0 0 1-31.99999-2.239999V226.239929C312.319902 223.99993 300.159906 223.99993 511.99984 223.99993s199.999938 0 223.99993 2.239999v507.519842c-25.279992 2.239999 0 2.239999-415.99987 2.239999z m511.99984 223.99993a31.99999 31.99999 0 1 1 31.99999-31.99999 31.99999 31.99999 0 0 1-31.99999 31.99999z" fill="#2c2c2c" p-id="1670"></path></svg>