<?xml version="1.0" standalone="no"?><!DOCTYPE svg PUBLIC "-//W3C//DTD SVG 1.1//EN" "http://www.w3.org/Graphics/SVG/1.1/DTD/svg11.dtd"><svg t="1656051466536" class="icon" viewBox="0 0 1024 1024" version="1.1" xmlns="http://www.w3.org/2000/svg" p-id="2149" xmlns:xlink="http://www.w3.org/1999/xlink" width="200" height="200"><defs><style type="text/css"></style></defs><path d="M289.491864 159.85041a31.970018 31.970018 0 0 1-22.698713-54.668731l94.311554-95.910054a31.970018 31.970018 0 1 1 45.397425 45.397426l-95.910054 95.910054a31.970018 31.970018 0 0 1-21.100212 9.271305zM455.096558 184.467324a31.970018 31.970018 0 0 1-22.698713-54.668731l88.55695-88.55695a31.970018 31.970018 0 1 1 45.397426 45.397426l-88.55695 88.55695a31.970018 31.970018 0 0 1-22.698713 9.271305zM896.922208 767.280755a31.970018 31.970018 0 0 1-22.698713-54.668731l94.311554-94.311554a31.970018 31.970018 0 0 1 45.397426 45.397426l-94.311554 94.311553a31.970018 31.970018 0 0 1-22.698713 9.271306zM870.706793 600.07756a31.970018 31.970018 0 0 1-22.698713-54.668731l88.556951-88.55695a31.970018 31.970018 0 0 1 45.397425 45.397425l-88.55695 88.556951a31.970018 31.970018 0 0 1-22.698713 9.271305z" fill="#2c2c2c" p-id="2150"></path><path d="M879.338698 418.168157l31.970018-25.576015A297.001468 297.001468 0 0 0 1023.20378 159.85041a159.850091 159.850091 0 0 0-159.850091-159.85009 297.001468 297.001468 0 0 0-232.741732 111.895063l-25.576014 31.970018L182.072603 77.048063A159.850091 159.850091 0 0 0 24.140714 146.423003l-18.542611 27.813915A31.970018 31.970018 0 0 0 12.951207 217.396443l333.127589 250.005542L287.893363 538.695125l-156.972789-22.379013a95.910054 95.910054 0 0 0-79.925045 27.174516l-41.561024 41.241323a31.970018 31.970018 0 0 0 2.557602 47.635327l123.40427 98.787356-48.594428 60.743034A102.943458 102.943458 0 0 0 167.046695 959.100863c45.717126 0 66.497638-24.297214 125.00277-71.29314l98.787356 123.08457a31.970018 31.970018 0 0 0 47.635327 2.877301l41.241324-41.561023a95.910054 95.910054 0 0 0 27.174515-81.203846l-22.379013-155.693989 337.283692-271.105753 61.062734 386.837219a95.910054 95.910054 0 0 1-41.561023 95.910054c-3.836402 2.557601 10.550106 19.182011-176.1548-229.86443a31.970018 31.970018 0 0 0-51.152029 38.364022l191.820109 255.760145a31.970018 31.970018 0 0 0 25.576014 12.788007c11.828907 0 14.706208-3.197002 45.397426-23.977514a159.850091 159.850091 0 0 0 69.374939-157.931889zM75.612443 184.467324a95.910054 95.910054 0 0 1 95.910054-44.118625L558.999117 201.411434l-172.957798 216.117322z m4.475802 420.405738c16.94411-17.26381 24.936614-27.813916 43.159525-25.256314l119.567868 16.94411-67.456739 84.400848zM191.983309 886.528922a39.003422 39.003422 0 0 1-63.940037-30.371517c0-20.780512-35.80642 31.970018 552.441914-703.340399A232.741732 232.741732 0 0 1 863.353689 63.940356a95.910054 95.910054 0 0 1 95.910055 95.910054 232.741732 232.741732 0 0 1-87.91755 182.868504z m252.243443 13.427408c2.877302 19.821411-11.828907 29.732117-25.256315 43.159524l-76.088643-95.910054 84.400848-67.456738z" fill="#2c2c2c" p-id="2151"></path><path d="M863.353689 255.760465a31.970018 31.970018 0 0 1-31.970018-31.970018 31.970018 31.970018 0 0 0-31.970018-31.970019 31.970018 31.970018 0 0 1 0-63.940036c95.910054 0 125.322471 127.880072 63.940036 127.880073z" fill="#2c2c2c" p-id="2152"></path></svg>