<?xml version="1.0" standalone="no"?><!DOCTYPE svg PUBLIC "-//W3C//DTD SVG 1.1//EN" "http://www.w3.org/Graphics/SVG/1.1/DTD/svg11.dtd"><svg t="1656051451477" class="icon" viewBox="0 0 1025 1024" version="1.1" xmlns="http://www.w3.org/2000/svg" p-id="1937" xmlns:xlink="http://www.w3.org/1999/xlink" width="200.1953125" height="200"><defs><style type="text/css"></style></defs><path d="M512.23136 96H224.23136a32 32 0 0 0-32 32v128a32 32 0 0 0 32 32h256a32 32 0 0 0 28.48-46.4L468.07136 160H512.23136a32 32 0 0 0 0-64zM256.23136 224V160h140.16l32 64z" fill="#2c2c2c" p-id="1938"></path><path d="M992.23136 512h-109.76l-68.16-113.28A96 96 0 0 0 732.07136 352h-8l-37.44-74.88A96 96 0 0 0 600.55136 224H160.23136a32 32 0 0 0-32 24.32L103.27136 352H96.23136a32 32 0 0 0-32 28.16C32.23136 633.28 37.67136 608 32.23136 608a32 32 0 0 0-32 35.84l24.96 200a96 96 0 0 0 96 84.16H224.23136a32 32 0 0 0 0-64H120.87136a32 32 0 0 1-32-28.16L68.39136 672h441.6a96 96 0 0 0 80-42.88l25.92-38.72a32 32 0 0 1 26.56-14.4h307.84l-72 264.32a32 32 0 0 1-32 23.68H352.23136a32 32 0 0 0 0 64h495.04a96 96 0 0 0 92.8-70.72L1024.23136 552.32A32 32 0 0 0 992.23136 512zM185.19136 288h416a32 32 0 0 1 28.8 17.6l22.4 46.4H169.19136z m377.28 266.88l-25.92 38.72a32 32 0 0 1-26.56 14.4H100.39136l24-192h608a32 32 0 0 1 27.52 15.68L807.59136 512h-165.12a96 96 0 0 0-80 42.88z" fill="#2c2c2c" p-id="1939"></path><path d="M800.23136 704a32 32 0 1 1 32-32 32 32 0 0 1-32 32z" fill="#2c2c2c" p-id="1940"></path></svg>